<svg width="584" height="584" viewBox="0 0 584 584" fill="none" xmlns="http://www.w3.org/2000/svg">
<g clip-path="url(#clip0_27_2)">
<path d="M83.6668 0.333374H500.334C546.167 0.333374 583.667 37.8334 583.667 83.6667V500.333C583.667 546.167 546.167 583.667 500.334 583.667H83.6668C37.8335 583.667 0.333496 546.167 0.333496 500.333V83.6667C0.333496 37.8334 37.8335 0.333374 83.6668 0.333374Z" fill="#7A8AFF" stroke="#7A8AFF" stroke-width="0.00666667"/>
<path d="M283.667 260.75L229.5 229.5L104.5 446.167L87.8335 519.083C85.7502 529.5 98.2502 535.75 104.5 529.5L158.667 479.5L283.667 260.75Z" fill="white" stroke="#7A8AFF" stroke-width="0.00666667"/>
<path d="M354.5 229.5L300.333 260.75L425.333 477.417L479.5 527.417C487.834 533.667 498.25 527.417 496.167 517L479.5 446.167L354.5 229.5Z" fill="white" stroke="#7A8AFF" stroke-width="0.00666667"/>
<path fill-rule="evenodd" clip-rule="evenodd" d="M362.833 354.5C342 367 319.083 375.333 292 375.333C223.25 375.333 167 319.083 167 250.333C167 244.083 167 235.75 169.083 229.5H106.583C104.5 235.75 104.5 244.083 104.5 250.333C104.5 354.5 187.833 437.833 292 437.833C327.417 437.833 362.833 427.417 389.917 408.667L362.833 354.5Z" fill="white" stroke="#7A8AFF" stroke-width="0.00666667"/>
<path d="M354.5 125.333H333.667V83.6667H250.334V125.333H229.5C217 125.333 208.667 133.667 208.667 146.167V229.5L275.334 312.833C283.667 323.25 300.334 323.25 308.667 312.833L375.334 229.5V146.167C375.334 133.667 367 125.333 354.5 125.333Z" fill="white" stroke="#7A8AFF" stroke-width="0.00666667"/>
<path d="M292 250.333C315.012 250.333 333.667 231.679 333.667 208.667C333.667 185.655 315.012 167 292 167C268.988 167 250.333 185.655 250.333 208.667C250.333 231.679 268.988 250.333 292 250.333Z" fill="#FF6600" stroke="#7A8AFF" stroke-width="0.00666667"/>
</g>
<defs>
<clipPath id="clip0_27_2">
<rect width="584" height="584" fill="white"/>
</clipPath>
</defs>
</svg>
